<svg id="visual" viewBox="0 0 900 600" width="900" height="600" xmlns="http://www.w3.org/2000/svg" xmlns:xlink="http://www.w3.org/1999/xlink" version="1.1"><rect x="0" y="0" width="900" height="600" fill="#002233"></rect><path d="M0 385L37.5 395.5C75 406 150 427 225 416.3C300 405.7 375 363.3 450 323.3C525 283.3 600 245.7 675 223.8C750 202 825 196 862.5 193L900 190L900 601L862.5 601C825 601 750 601 675 601C600 601 525 601 450 601C375 601 300 601 225 601C150 601 75 601 37.5 601L0 601Z" fill="#ff5806" stroke-linecap="round" stroke-linejoin="miter"></path></svg>